<svg id="Layer_1" data-name="Layer 1" xmlns="http://www.w3.org/2000/svg" viewBox="0 0 1200 285.08"><defs><style>.cls-1,.cls-2{fill:#e75a71;}.cls-2{fill-rule:evenodd;}.cls-3{fill:#464552;}</style></defs><title>listening-crowd-logo</title><path class="cls-1" d="M72.13,251.73" transform="translate(-72 -97.46)"/><path class="cls-1" d="M179.38,251.73" transform="translate(-72 -97.46)"/><path class="cls-1" d="M143.59,251.73" transform="translate(-72 -97.46)"/><path class="cls-1" d="M107.92,251.73" transform="translate(-72 -97.46)"/><path class="cls-2" d="M291.13,210.9a10.35,10.35,0,1,0,10.34-10.29A10.32,10.32,0,0,0,291.13,210.9Z" transform="translate(-72 -97.46)"/><path class="cls-2" d="M72,210.21a10.29,10.29,0,1,0,10.35-10.36A10.3,10.3,0,0,0,72,210.21Z" transform="translate(-72 -97.46)"/><path class="cls-2" d="M179.15,107.75a10.34,10.34,0,1,0,10.33-10.29A10.31,10.31,0,0,0,179.15,107.75Z" transform="translate(-72 -97.46)"/><path class="cls-2" d="M216.54,146.6a10.29,10.29,0,1,0,10.22-10.29A10.28,10.28,0,0,0,216.54,146.6Z" transform="translate(-72 -97.46)"/><path class="cls-2" d="M253.82,190.31A10.29,10.29,0,1,0,264.19,180,10.33,10.33,0,0,0,253.82,190.31Z" transform="translate(-72 -97.46)"/><path class="cls-2" d="M143.46,123.27A10.29,10.29,0,1,0,153.83,113,10.33,10.33,0,0,0,143.46,123.27Z" transform="translate(-72 -97.46)"/><path class="cls-2" d="M107.8,172.1A10.29,10.29,0,1,0,118,161.75,10.29,10.29,0,0,0,107.8,172.1Z" transform="translate(-72 -97.46)"/><path class="cls-1" d="M138.59,243.31H128.24V194.92a7,7,0,0,0-6.85-7h-6.62a6.9,6.9,0,0,0-6.86,6.92v56.74H108a3.41,3.41,0,0,1,.63-0.68,63.81,63.81,0,0,1,7.35-6.73,0.42,0.42,0,0,0,.27-0.18,3.68,3.68,0,0,1,2-.62,2.84,2.84,0,0,1,1.62.5c0.26,0.12.38,0.24,0.63,0.37a0.61,0.61,0,0,1,.24.37,1.53,1.53,0,0,1,.5.63c0,0.13.14,0.25,0.14,0.39a2.44,2.44,0,0,1,.24.93v0.19h0v4.93h0v58.25A10.21,10.21,0,0,0,131.87,320,10.1,10.1,0,0,0,142,309.85V246.67A3.36,3.36,0,0,0,138.59,243.31Z" transform="translate(-72 -97.46)"/><path class="cls-1" d="M174.39,243.31H163.91V147.16a7,7,0,0,0-6.85-7h-6.61a7,7,0,0,0-6.85,6.91V251.6s0.13,0,.13-0.07h0l0.62-.68a75.43,75.43,0,0,1,7.35-6.73l0.39-.18a3,3,0,0,1,1.86-.62,3.31,3.31,0,0,1,1.75.5c0.13,0.12.37,0.24,0.5,0.37s0.27,0.25.38,0.37a4.05,4.05,0,0,1,.37.63c0.13,0.13.13,0.25,0.26,0.39a2.15,2.15,0,0,1,.14.93c0,0.07.11,0.13,0.11,0.19h0v4.93h0v95.83a10.1,10.1,0,1,0,20.21,0V246.67A3.34,3.34,0,0,0,174.39,243.31Z" transform="translate(-72 -97.46)"/><path class="cls-1" d="M102.93,243.31H92.45V234.7a6.93,6.93,0,0,0-6.85-7.1H79a7,7,0,0,0-6.86,6.92V251.6a2.76,2.76,0,0,0,.75-0.75,77.75,77.75,0,0,1,7.35-6.73,3.9,3.9,0,0,0,.38-0.18,3.07,3.07,0,0,1,1.88-.62,3.29,3.29,0,0,1,1.75.5c0.13,0.12.37,0.24,0.51,0.37s0.24,0.25.37,0.37a4.9,4.9,0,0,1,.37.63c0.14,0.13.14,0.25,0.27,0.39a2.64,2.64,0,0,1,.11.93c0,0.07.13,0.13,0.13,0.19h0v4.93h0v7.11a10.16,10.16,0,1,0,20.33,0v-12A3.44,3.44,0,0,0,102.93,243.31Z" transform="translate(-72 -97.46)"/><path class="cls-1" d="M322,243.31H311.57V234.7a6.94,6.94,0,0,0-6.85-7.1h-6.61a6.79,6.79,0,0,0-6.75,6.92v17h0a2.51,2.51,0,0,0,.63-0.68,64.4,64.4,0,0,1,7.48-6.73,0.42,0.42,0,0,1,.24-0.18,3.74,3.74,0,0,1,1.88-.62,3.34,3.34,0,0,1,1.75.5,1.76,1.76,0,0,1,.5.37c0.12,0.12.24,0.25,0.38,0.37a0.79,0.79,0,0,1,.37.63,0.63,0.63,0,0,1,.25.39,2.44,2.44,0,0,1,.12.93,0.18,0.18,0,0,1,.14.19h0v12.17A10.1,10.1,0,0,0,315.19,269a10.21,10.21,0,0,0,10.22-10.14V246.67A3.35,3.35,0,0,0,322,243.31Z" transform="translate(-72 -97.46)"/><path class="cls-1" d="M284.76,243.31H274.28v-29.5a7,7,0,0,0-6.87-7.1h-6.61a7,7,0,0,0-6.85,6.91v38s0.13,0,.13-0.07h0c0.12-.11.61-0.68,0.61-0.68a74.65,74.65,0,0,1,7.36-6.73l0.39-.18a3,3,0,0,1,1.86-.62,3.26,3.26,0,0,1,1.75.5c0.13,0.12.38,0.24,0.5,0.37a5.2,5.2,0,0,1,.38.37,4.89,4.89,0,0,1,.38.63c0.12,0.13.12,0.25,0.26,0.39a2.29,2.29,0,0,1,.13.93c0,0.07.11,0.13,0.11,0.19h0v32.12a10.1,10.1,0,1,0,20.21,0V246.67A3.33,3.33,0,0,0,284.76,243.31Z" transform="translate(-72 -97.46)"/><path class="cls-1" d="M210.06,243.31H199.7V130.39a7,7,0,0,0-6.86-7.11h-6.75a7.12,7.12,0,0,0-6.84,7V251.6c0.13,0,.13,0,0.13-0.07h0c0.24-.11.63-0.68,0.74-0.68a54.66,54.66,0,0,1,7.34-6.73c0.13-.06.13-0.12,0.26-0.18a3.73,3.73,0,0,1,2-.62,2.78,2.78,0,0,1,1.61.5c0.27,0.12.4,0.24,0.64,0.37s0.13,0.25.24,0.37a1.4,1.4,0,0,1,.51.63c0,0.13.13,0.25,0.13,0.39a2.44,2.44,0,0,1,.24.93V372.38a10.11,10.11,0,0,0,10.11,10.16,10.22,10.22,0,0,0,10.24-10.16V246.67A3.36,3.36,0,0,0,210.06,243.31Z" transform="translate(-72 -97.46)"/><path class="cls-1" d="M247.34,243.31H237V172.48a7,7,0,0,0-6.85-7.12h-6.62a7,7,0,0,0-6.87,6.93v79.24h0.12a4.12,4.12,0,0,1,.63-0.68,63.8,63.8,0,0,1,7.36-6.73,0.37,0.37,0,0,0,.24-0.18,3.77,3.77,0,0,1,2-.62,2.91,2.91,0,0,1,1.62.5,2.67,2.67,0,0,1,.63.37,0.71,0.71,0,0,1,.24.37,2,2,0,0,1,.5.63c0,0.13.13,0.25,0.13,0.39a2.84,2.84,0,0,1,.24.93v0.19h0v4.86h0v67.54a10.22,10.22,0,0,0,10.24,10.16,10.11,10.11,0,0,0,10.09-10.16v-72.4A3.35,3.35,0,0,0,247.34,243.31Z" transform="translate(-72 -97.46)"/><path class="cls-3" d="M412.92,215.43c-4.09,0-7.92,2.24-7.92,5.21v67.75c0,2.86,4.1,5.37,7.92,5.37s8.08-2.56,8.08-5.37V220.64C421,217.67,417.1,215.43,412.92,215.43Z" transform="translate(-72 -97.46)"/><path class="cls-3" d="M379.42,177.08c-4.09,0-7.42,2.24-7.42,5.2V288.4c0,2.86,3.6,5.36,7.42,5.36S387,291.2,387,288.4V182.28C387,179.31,383.6,177.08,379.42,177.08Z" transform="translate(-72 -97.46)"/><path class="cls-3" d="M412.95,177.08c-4.86,0-9,3.73-9,8.14s4.1,8.3,9,8.3c4.69,0,8.8-3.88,8.8-8.3S417.72,177.08,412.95,177.08Z" transform="translate(-72 -97.46)"/><path class="cls-3" d="M464.24,247.08c-8.27-2.36-15.41-4.39-15.41-11.18,0-5.28,4.5-11,14.38-11a29.71,29.71,0,0,1,13.21,3.31,11.72,11.72,0,0,0,4.25,1.42c3.66,0,5.87-5.09,5.87-7.32,0-5.23-12.63-9.29-23.5-9.29-20.12,0-27.25,12.56-27.25,23.32,0,15,12,18.55,22.62,21.71,9.25,2.75,17.23,5.14,17.23,13.88,0,3.68-2,9.83-15,9.83-9.36,0-14-3.33-17.14-5.54-1.67-1.19-3-2.13-4.42-2.13-3.12,0-5.19,4-5.19,6.67,0,6.08,11.65,12.87,27.25,12.87,17.36,0,27.73-8.35,27.73-22.34C488.83,254.1,475.2,250.21,464.24,247.08Z" transform="translate(-72 -97.46)"/><path class="cls-3" d="M534.88,280.82h-5.05c-9.79,0-13.09-3.09-13.09-12.26V226.9h20.12c2.59,0,4.55-2.44,4.55-5.7,0-2.88-1.7-5.86-4.55-5.86H516.73V182.2c0-3.21-3.8-5.2-7.32-5.2s-7.16,2.14-7.16,5.2v86.36c0,16.9,9,25.12,27.58,25.12h5.05a6.24,6.24,0,0,0,6.35-6.52A6.15,6.15,0,0,0,534.88,280.82Z" transform="translate(-72 -97.46)"/><path class="cls-3" d="M663,214.37c-10.65,0-17.85,5.48-21.4,11.11v-4.92c0-2.92-2.92-5.21-6.66-5.21-4.23,0-7.18,2.14-7.18,5.21v67.75c0,2.59,2.89,5.37,7.18,5.37,3.77,0,7.32-2.6,7.32-5.37V246.19c0-11.66,8.81-18.63,17.32-18.63,9.49,0,18.13,8.88,18.13,18.63v42.12c0,3.52,3.61,5.37,7.18,5.37s7.33-1.68,7.33-5.37V246.19C692.22,228.94,678.84,214.37,663,214.37Z" transform="translate(-72 -97.46)"/><path class="cls-3" d="M717,193.44c4.69,0,8.8-3.88,8.8-8.3s-4-8.14-8.8-8.14-9,3.73-9,8.14S712.18,193.44,717,193.44Z" transform="translate(-72 -97.46)"/><path class="cls-3" d="M717,215.35c-4.09,0-7.18,2.24-7.18,5.21v67.75c0,2.86,3.36,5.37,7.18,5.37s7.32-2.56,7.32-5.37V220.56C724.36,217.59,721.21,215.35,717,215.35Z" transform="translate(-72 -97.46)"/><path class="cls-3" d="M777.92,214.37c-10.65,0-17.85,5.48-21.41,11.11v-4.92c0-2.92-2.92-5.21-6.66-5.21-4.23,0-7.18,2.14-7.18,5.21v67.75c0,2.59,2.88,5.37,7.18,5.37,3.77,0,7.32-2.6,7.32-5.37V246.19c0-11.66,8.81-18.63,17.32-18.63,9.48,0,18.13,8.88,18.13,18.63v42.12c0,3.52,3.61,5.37,7.18,5.37s7.32-1.68,7.32-5.37V246.19C807.13,228.94,793.75,214.37,777.92,214.37Z" transform="translate(-72 -97.46)"/><path class="cls-1" d="M948.5,273.21c-1.64,0-3,.88-4.53,1.9a21.28,21.28,0,0,1-13.26,4c-12.37,0-18.91-6.31-18.91-18.25V244.5c0-11.94,6.48-18.25,18.75-18.25a21.26,21.26,0,0,1,13,3.92c1.49,1,2.77,1.79,4.26,1.79,4.14,0,6.89-4.73,6.89-7.87,0-5.89-10.33-12.44-25.16-12.44-21.08,0-33.67,12.28-33.67,32.85v16.33c0,20.56,12.65,32.84,33.82,32.84,14.89,0,26-6.74,26-12.76C955.72,277.69,953,273.21,948.5,273.21Z" transform="translate(-72 -97.46)"/><path class="cls-1" d="M1007.75,213h-5.55c-9.1,0-16.1,5.14-20.22,10.57v-3.68c0-3.37-3.17-5.91-7.37-5.91-4.64,0-7.89,2.43-7.89,5.91V287.6c0,3.35,3.54,6.07,7.89,6.07s8-2.84,8-6.07V250.37c0-14.28,9.94-22.82,19.56-22.82h5.55c3.46,0,6.4-3.3,6.4-7.22S1011.16,213,1007.75,213Z" transform="translate(-72 -97.46)"/><path class="cls-1" d="M1051.42,211.57c-18.08,0-33.42,14.89-33.42,32.53v16.66c0,17.49,15.65,32.84,33.42,32.84S1085,278.24,1085,260.75V244.09C1085,226.46,1069.57,211.57,1051.42,211.57ZM1069,260.75c0,9.72-8.21,18.25-17.59,18.25S1034,270.47,1034,260.75V244.09c0-8.48,7.14-17.93,17.41-17.93,9.38,0,17.59,8.38,17.59,17.93v16.66Z" transform="translate(-72 -97.46)"/><path class="cls-1" d="M1189.44,212.14c-2.61,0-4.77,1.39-5.35,3.39l-18.72,52-14-46.58c-0.91-2.7-3-4.06-6.33-4.06-4,0-5.56,2.21-6.2,4.09l-14.3,46.11L1106,215.53c-0.76-2.13-2.82-3.4-5.51-3.4-4,0-9.5,2.68-9.5,7.05a10.5,10.5,0,0,0,.71,3L1117,289.48c1.06,2.82,3.22,4.19,6.65,4.19s6-1.57,7-4.25l14.4-44.1L1159.77,290c1,2.35,3.35,3.66,6.64,3.66s5.58-1.31,6.49-3.7l25.42-67.63a7.86,7.86,0,0,0,.79-3.15C1199.1,214.82,1193.47,212.14,1189.44,212.14Z" transform="translate(-72 -97.46)"/><path class="cls-1" d="M1264.58,176.91c-4.57,0-7.58,2.52-7.58,5.87v39c-6-6.11-12.83-9.65-20.91-9.65-16.76,0-31.09,14.49-31.09,32.3V261c0,17.38,14.35,32.62,30.27,32.62,9.5,0,15.73-4.68,21.73-9.91v2.58c0,3.21,3.33,6,7.26,6,4.34,0,7.74-2.7,7.74-6V182.79C1272,179.38,1269.14,176.91,1264.58,176.91ZM1257,265.35c0,3.87-8.38,13.75-18.09,13.75-9,0-17.91-8.64-17.91-18.12V244.43c0-9.32,9-17.8,18.09-17.8,8.49,0,17.91,6.66,17.91,17.8v20.92Z" transform="translate(-72 -97.46)"/><path class="cls-3" d="M885.52,217.75a4.67,4.67,0,0,0,3-4.19c0-2.66-2.42-5.53-6.35-5.53s-8.2,3.86-11.28,10.35a29.94,29.94,0,0,0-18.67-6.1c-17.66,0-29.28,11-29.28,27.41v5.38c0,8.2,3,15.62,8.7,20.5-4.13,2.44-7.94,5.67-7.94,12.15,0,5.34,2.29,8.76,7.54,11-5.93,2.86-12.52,8.17-12.52,17.76,0,13.46,13.75,22.52,34.23,22.52,20.74,0,33.62-9.32,33.62-24.32,0-18.38-18.23-20.55-32.88-22.29-9.34-1.11-17.42-2.07-17.42-7.1,0-2.48,1.7-3.8,3.65-5a29.28,29.28,0,0,0,12,2.39c17.4,0,30-11.6,30-27.57v-5.38c0-6.09-1.73-11.59-4.92-15.55A14.12,14.12,0,0,1,885.52,217.75ZM845,292.09c1.36,0.17,2.84.31,4.38,0.46,10.26,1,23,2.26,23,12.44,0,8.24-7.69,13.58-19.6,13.58-12.33,0-20.28-5.33-20.28-13.58C832.57,299.14,836.77,294.8,845,292.09Zm22-47c0,10.37-6.12,17.33-15.41,17.33s-15.59-7-15.59-17.49v-5.22c0-10.27,6.13-17.17,15.43-17.17S867,229.58,867,239.68v5.38Z" transform="translate(-72 -97.46)"/><path class="cls-3" d="M605.88,274.15c-1.63,0-3.08.88-4.93,2a24.5,24.5,0,0,1-14.52,4.37c-13.59,0-22.44-7.76-22.44-19.29V258h34.71c6.68,0,15-.6,15-14.62,0-17.11-13.93-30.81-31.77-30.81s-32.93,14-32.93,31v17.15c0,18.92,15.07,32.13,36.68,32.13,15.79,0,26.24-7.25,26.24-12.06C611.92,278.17,609.5,274.15,605.88,274.15ZM564,241.32c0-9.55,7.92-17.33,18-17.33s18,8.71,18,18.62c0,3.91-1.34,5.39-6.85,5.39H564v-6.68Z" transform="translate(-72 -97.46)"/></svg>
